<svg id="Capa_1" data-name="Capa 1" xmlns="http://www.w3.org/2000/svg" viewBox="0 0 1080 1080">
  <defs>
    <style>
      .cls-1 {
        fill: #666;
      }

      .cls-2 {
        fill: #be0811;
      }
    </style>
  </defs>
  <title>Versiones Imagotipo Sentry</title>
  <g>
    <g>
      <path class="cls-1" d="M124.83,742.93c2.94,6,1.88,9.13-4.16,12.07l-1.23.6c-6.42,3.12-9.5,2.06-12.45-4l-.59-1.23c-3.13-6.42-2.07-9.5,4.35-12.63l1.23-.6c6-2.94,9.12-1.88,12.25,4.54Z"/>
      <path class="cls-1" d="M138.22,832.85a4.19,4.19,0,0,1-4.7-1.57l-5.91-8.42a4.2,4.2,0,0,1,.11-5l44.57-57.48,6.22,8.85-36.73,45.81c-1.73,2.12-3.6,4.2-5.38,6.22l1.63,2.32c2.45-1.08,5.1-2,7.67-3l55.5-19.09,6.21,8.85Z"/>
      <path class="cls-1" d="M158,862.63l38.8-33.47,6.58,7.64-38.79,33.47Zm60.21-42.09a2.66,2.66,0,0,1-.31,4.15l-4.45,3.84c-1.51,1.3-2.92,1.27-4.23-.24L206,824.64c-1.31-1.51-1.13-2.92.38-4.22l4.45-3.84a2.66,2.66,0,0,1,4.15.3Z"/>
      <path class="cls-1" d="M200,903.28a3.72,3.72,0,0,1-4.32-.67l-6.56-6.35a3.59,3.59,0,0,1-.74-4.22l20.73-47.72,7.77,7.52L201,885.52c-1.3,2.69-2.73,5.54-4.1,8.31l1,.95c2.8-1.39,5.6-2.92,8.32-4.23l33.05-17.11L247,881Z"/>
      <path class="cls-1" d="M260.86,945.14l-3.3,5.93c-5.35-1.28-13.14-6.11-18-9.78-14.24-10.76-15.32-20.66-3.42-36.41,12.22-16.16,21.9-17.14,35.14-7.14,12.73,9.62,14.31,18.32,7.54,27.29-5.57,7.37-12,9.38-18.83,4.19l-18.34-13.86c-5.87,9.51-3.75,14,4.13,20A177.26,177.26,0,0,0,260.86,945.14ZM246.23,909l16.33,12.34c3.44,2.6,6.24.11,8.14-2.4,3.65-5,2.76-8.71-4.2-14C258.55,898.92,253.9,899.49,246.23,909Z"/>
      <path class="cls-2" d="M351.36,940.84,325.81,992l-17.67-8.82L333.7,932l-18.6-9.28,6.8-13.63,55,27.43-6.8,13.63Z"/>
      <path class="cls-2" d="M425,997.5c-6.91,21.49-16.94,27-37.64,20.33-22.19-7.13-27.65-17.6-20.74-39.09l13.17-41,18.79,6-13.17,41c-3.79,11.8-2.42,15.76,5.58,18.33s11.42.15,15.21-11.65l13.17-41,18.8,6Z"/>
      <path class="cls-1" d="M506.93,1038.89c-9.59-.25-20.64-1.51-31-2.69-9-1-13.82-6.65-13-14.59l5.31-46.52c1-7.92,7.11-12.29,16-11.28,10.33,1.18,21.38,2.44,30.78,4.36l-1.45,8.08L485,973c-4.17-.48-5.94,1.12-6.5,6l-1.65,14.4,30.36,3.46-1,8.45-30.35-3.46-2.1,18.35c-.56,4.91.8,6.86,5,7.34l28.58,3.26Z"/>
      <path class="cls-1" d="M544.64,1017.31l-13.48,22.9-11,.18,16.37-26.73-15.94-24.52,10.92-.18,12.83,20.48,2.31,0,12.15-20.89,10.92-.17-15,25,17.23,26.18-11,.18-14.23-22.45Z"/>
      <path class="cls-1" d="M631.21,1006.62c2.75,19.66-2.77,27.21-15.67,29a34.51,34.51,0,0,1-19.11-2.52,87.08,87.08,0,0,1,1.75,10.25l2,14.24-10,1.4-10-71.44,8.32-1.16,1.81,7.69A31.65,31.65,0,0,1,610.17,982C622.44,980.29,628.78,989.26,631.21,1006.62ZM620.79,1008c-1.9-13.62-5.45-17.79-12.84-16.75-5.3.74-9.73,3.9-15.7,9.72l3.6,25.79c6.13.63,10.67,1.26,15.77.55C620,1026.1,622.82,1022.43,620.79,1008Z"/>
      <path class="cls-1" d="M691.45,1008.21l2.69,6.23c-4.27,3.46-12.85,6.7-18.72,8.32-17.21,4.75-25.71-.42-31-19.45-5.39-19.53-.27-27.81,15.72-32.22,15.39-4.24,23.26-.21,26.24,10.62,2.46,8.91.17,15.21-8.13,17.5l-22.17,6.11c4,10.45,8.84,11.51,18.35,8.88A179,179,0,0,0,691.45,1008.21Zm-37.62-10.42,19.73-5.45c4.15-1.14,3.88-4.88,3.05-7.92-1.75-5.94-5.23-7.49-13.63-5.17C653.37,981.9,651,985.94,653.83,997.79Z"/>
      <path class="cls-1" d="M726.06,957.91l-2.93,1.16c-5.07,2-8.94,5.94-14.89,12.26L722,1005.86l-9.46,3.77-19-47.6,7.32-2.91,3.89,6.93c4.59-8,10.23-14,16.57-16.55l2.24-.89Z"/>
      <path class="cls-1" d="M729.68,922.62a2.65,2.65,0,0,1,3.93,1.34l2.59,5.28c.87,1.79.49,3.15-1.3,4l-4.34,2.12c-1.79.88-3.1.35-4-1.44L724,928.67a2.66,2.66,0,0,1,1.35-3.93Zm25.45,68.9-22.54-46,9-4.44,22.54,46Z"/>
      <path class="cls-1" d="M813.42,949l4.3,5.25c-3.15,4.5-10.51,10-15.72,13.14-15.24,9.28-24.83,6.65-35.1-10.21-10.55-17.3-7.89-26.67,6.27-35.3,13.63-8.3,22.31-6.58,28.15,3,4.81,7.89,4.33,14.57-3,19l-19.64,12c6.69,8.95,11.66,8.63,20.09,3.5C803.23,956.72,809,952.47,813.42,949Zm-39,.3,17.48-10.65c3.68-2.24,2.39-5.76.75-8.45-3.31-5.24-7.08-5.77-14.52-1.24C769.58,934.19,768.41,938.72,774.39,949.34Z"/>
      <path class="cls-1" d="M846.66,885.75l24.06,30-8,6.38-22.21-27.68c-4.07-5.07-6.63-5.58-10.4-2.55-4.5,3.61-6.84,9.25-10,17.87L843,938,835,944.38l-32.07-40,6.71-5.39L815,904.7c2.35-9.16,6.08-16.59,12-21.32C834,877.72,840.88,878.55,846.66,885.75Z"/>
      <path class="cls-1" d="M877.46,838.49l3.71,5.52c-3.52,3.17-7.54,7-10,9.57-8.13,8.36-8,14.07,2.27,24s16,9.94,24.08,1.58a99,99,0,0,0,9.71-11.64l5.55,4.08a54.23,54.23,0,0,1-10.41,14.77C889.83,899.28,880.17,899,866,885.21s-14.74-23.55-2.3-36.35C867,845.47,872.44,840.79,877.46,838.49Z"/>
      <path class="cls-1" d="M872.12,808.3a2.66,2.66,0,0,1,4.14-.41l4.55,3.72c1.54,1.27,1.76,2.66.49,4.21l-3.06,3.73c-1.26,1.55-2.67,1.61-4.21.35l-4.55-3.72a2.66,2.66,0,0,1-.42-4.14ZM924,860.35,884.3,827.9l6.38-7.8,39.66,32.45Z"/>
      <path class="cls-1" d="M937.26,781.44l29.6,20L962.4,808l-7.35-3.56c1.11,5.3,1.26,14.27-4,22s-13,10.09-20.76,4.87l-4.44-3c-6.79-4.57-7.68-11.51-2.52-19.17l11.51-17.06-3.31-2.23c-5.28-3.44-8.17-2.72-12.57,3.8-2.82,4.18-7.17,11.76-11.11,18.73L901.18,809a168.5,168.5,0,0,1,11.91-22C919.72,777.22,926.55,774.22,937.26,781.44ZM935,822.11c4.18,2.82,7.21,2.08,10.09-2.19,2.58-3.83,4.74-10.6,3.67-18.41l-7.57-5.11-10.45,15.5c-2.46,4-1.23,6.52,2,8.69Z"/>
      <path class="cls-1" d="M959.39,734.08c2.84-6.09,5.91-7.21,12-4.37l1.24.58c6.47,3,7.59,6.08,4.75,12.17l-.58,1.24c-3,6.47-6.08,7.59-12.55,4.57L963,747.7c-6.09-2.84-7.21-5.91-4.19-12.38Z"/>
    </g>
    <g>
      <path class="cls-1" d="M50.72,354.3l10.57,4.26c-3,8.52-6.88,19.53-9.88,29.18-4.33,14-5.4,19.5,8.26,23.74,10.55,3.28,14.53.44,19.43-7.48l12-18.6c9.25-14.56,20.28-16.51,35.58-11.76,23.62,7.34,25,19,17.38,43.67a181.37,181.37,0,0,1-13,31.32l-10.67-4.46c6.36-18.38,8.12-23.53,10.52-31.26,4.51-15.05,3.67-20.2-9.11-24.16-11.14-3.46-14.71-.34-19.52,7.29L90,415c-8.81,13.71-19.83,16.15-35.43,11.31C30.8,419,30.81,407.4,38,384.23,41,374.58,45,363.92,50.72,354.3Z"/>
      <path class="cls-1" d="M68,310.94c1.28-2.66,3.42-3.19,5.81-2.05l7.86,3.75c2.67,1.28,3.47,3.21,2.2,5.88L80.74,325c-1.27,2.67-3.28,3.26-5.95,2l-7.86-3.75c-2.38-1.14-3.32-3.14-2.05-5.81Zm92.94,56.62L92.4,334.85l6.44-13.47,68.49,32.71Z"/>
      <path class="cls-1" d="M145.08,245.65l8.43,7c-5.46,7.76-11.22,15.71-16.42,23.64-7.41,11.32-9.58,14.92-2.69,19.44,6.12,4,8.6,1.35,14.21-3.53l16.19-15.06c9.46-8.49,16.48-10.4,27.54-3.15,15.61,10.22,12.72,20.6.28,39.6a204.45,204.45,0,0,1-18.35,24l-8.78-7c4.36-5.51,9.52-13.1,14.89-21.3,9.11-13.93,10.45-18.81,4-23.07-5.86-3.84-8.89-.62-14.38,4.34l-16,14.8c-9.64,8.75-17.14,9.42-27.55,2.6-14.44-9.46-13-19.09-1.25-36.7A243.28,243.28,0,0,1,145.08,245.65Z"/>
      <path class="cls-1" d="M217,243.76c5.3,4.81,8.92,4.52,13.83-.89l7.42-8.18,9.79,6.57c-2.31,4.63-7.8,11.61-10.52,14.61-8.68,9.56-18.92,9.51-29.06.31l-32.83-29.79-9.3,10.25-8.06-7.32L167,218.55l-16.47-15,10-11.06,16.47,15,15.78-17.39,8.64,7.84-15.78,17.39Z"/>
      <path class="cls-1" d="M297.75,184.63l7.29,6.92c-3.81,7.2-13.62,16.6-20.68,22.21-20.7,16.46-35.29,14.36-53.49-8.53-18.69-23.5-16.51-37.75,2.72-53,18.51-14.71,31.57-13.78,41.93-.75,8.52,10.71,9.05,20.63-.93,28.56L247.93,201.2c11.48,11.93,18.72,10.54,30.17,1.44A265.06,265.06,0,0,0,297.75,184.63Zm-57.32,7.63,23.73-18.88c5-4,2.46-8.91-.45-12.56-5.83-7.08-11.46-7.17-21.57.86C230.58,170.88,229.68,177.75,240.43,192.26Z"/>
      <path class="cls-1" d="M397.59,85,421,136.9,407.51,143,385.91,95c-3.79-8-7.87-10.27-15.25-7-6.66,3-9.92,7.89-16.81,19.86L376,157.15l-13.19,5.95-21.6-47.94c-3.83-8.51-8.43-10-15.24-7-6.38,2.88-9.85,7.68-16.88,19.72l22.24,49.35-13.61,6.14-31.19-69.21,11.35-5.11,5.44,10.17c5.63-12.09,12.59-20.51,22.23-24.86,9.36-4.22,17.17-2.79,23,4.13,5.57-12.24,12.58-20.17,21.8-24.32C382.44,68.79,392,72.51,397.59,85Z"/>
      <path class="cls-1" d="M491,72.25l9,52.12-11.65,2-3.73-11.51c-4.54,6.62-14,16-27.61,18.35s-24.13-3.57-26.49-17.21l-1.35-7.82c-2.07-12,4.43-20,17.92-22.35l30-5.19-1-5.83c-1.74-9.17-5.46-11.52-17-9.54-7.35,1.28-19.92,4.39-31.41,7.33L424.45,62c10.26-3.66,25.3-8,35.72-9.8C477.49,49.17,487.69,53.4,491,72.25Zm-45.77,39.33c1.27,7.35,5.17,9.84,12.69,8.54,6.74-1.17,16.2-5.8,23.46-15L479,91.84l-27.28,4.71c-6.84,1.5-8.23,5.37-7.25,11Z"/>
      <path class="cls-1" d="M577.39,49,576,59.81c-9.48-.46-19.27-1.09-28.75-1.24-13.53-.22-17.74-.13-17.87,8.11-.12,7.31,3.45,8,10.57,10.13l21.38,5.63c12.23,3.47,17.59,8.38,17.38,21.6-.3,18.66-10.62,21.76-33.32,21.39a203.28,203.28,0,0,1-30.14-2.67l1.27-11.18c7,.74,16.16,1,26,1.2,16.64.27,21.49-1.21,21.61-9,.11-7-4.23-7.85-11.35-9.83l-21.07-5.63c-12.54-3.47-17.11-9.45-16.91-21.9.28-17.26,9.21-21.16,30.36-20.66A242.91,242.91,0,0,1,577.39,49Z"/>
      <path class="cls-2" d="M666.18,65q-2.76,8.91,6.17,11.67l26.75,8.24q14.56,4.48,19.34,13.32t.34,23.17l-2.25,7.31q-4.41,14.33-13.32,18.95t-23.48.13l-9.44-2.91-10.11-3.12-10.26-3.16-9.73-3a126.35,126.35,0,0,1-21-8.57l5.86-19,21.11,6.51,18.13,5.59,15.91,4.9a8,8,0,0,0,6-.22,7,7,0,0,0,3.58-4.5l3.89-12.61L659.53,97.14q-15.6-4.81-20.49-14T639,58.25l1.38-4.46q4.8-15.6,14-20.49t24.85-.08L731.4,49.3,725,70.11,678.76,55.87q-8.93-2.76-11.67,6.17Z"/>
      <path class="cls-2" d="M742.31,107.61q5.81-10,14.81-12.44t19.12,3.44l26.94,15.55Q813.29,120,815.71,129t-3.41,19.13l-14.38,24.93-46.48-26.82-2.94,5.1a4.84,4.84,0,0,0-.49,4,5.4,5.4,0,0,0,2.63,3.22l12.6,7.26L776,173.16l14.62,6.4-9.74,16.88a134.77,134.77,0,0,1-16.65-8.17,102.7,102.7,0,0,1-15.93-7.57l-15.9-9.17q-9.17-5.28-11.51-14t2.9-17.8Zm31.62,12.12c-3.59-2.08-6.43-1.31-8.5,2.28l-4.27,7.41,22.9,13.21,4.28-7.41q3.1-5.39-2.28-8.5Z"/>
      <path class="cls-2" d="M863.14,159.69l-4.09,6.8a57.68,57.68,0,0,1,9.58,2.41,85.31,85.31,0,0,1,8.82,3.72,36.09,36.09,0,0,1,8.58,5.82l5.18,4.71q7.81,7.13,8.24,16.14t-6.71,16.82L851.89,261l-20.12-18.33,37.71-41.4a5.31,5.31,0,0,0-.36-7.69l-4-3.66a44.46,44.46,0,0,0-4.92-3.85q-2.73-1.86-5.22-3.28a61,61,0,0,0-5.76-3.14l-39.28,43.12L789.8,204.4l55.52-61Z"/>
      <path class="cls-2" d="M942.18,244.68l11.69,15.53-16.78,12.63L925.4,257.3l-28.59,21.5a5.32,5.32,0,0,0-1.07,7.63l12.15,16.16-16.22,12.2a69.63,69.63,0,0,1-6.2-7.21,57.81,57.81,0,0,1-6.26-7.16L872.85,292q-6.36-8.46-5.11-17.38t9.68-15.26L909,235.55l-5.61-7.46,16.78-12.63,5.61,7.46,16.72-8.68L957,233.5Z"/>
      <path class="cls-2" d="M979.23,303.51l-8.21,6.1a58.14,58.14,0,0,1,8.8,4.32,55.78,55.78,0,0,1,7.69,5.88,32.29,32.29,0,0,1,6.92,9.09l3.28,6.19L976.4,346.37l-6.19-11.69a36.81,36.81,0,0,0-4.29-6.44q-2.4-2.87-4.39-5c-1.66-1.58-3.3-3-4.9-4.27l-48.8,25.84-12.74-24.06L968,282.2Z"/>
      <path class="cls-2" d="M1021.51,407.94l8.63,27.45-90.77-4.05q-13.05-.63-21.19-5.56t-11.83-16.66c-.6-1.88-1.24-3.94-1.94-6.16a57.09,57.09,0,0,1-1.63-6.42c-.47-2.35-.89-4.72-1.24-7.11l19.36-6.09,4.2,13.35c1.19,3.76,3,5.88,5.43,6.37s5.28-.66,8.53-3.42l63.07-53.28,8.64,27.45L965.7,408.38Z"/>
    </g>
    <g>
      <path class="cls-2" d="M833,487.46s-20.41-28.54-61.8-33.28c0,0-2.58-.22-8.91-3.22,0,0-16.09-29-84.8-12.54,0,0-65.59,16.12-98.81,36.12,0,0-34.43,20.83-60.34,41.46,21.27,17.63,43.21,35.82,59.07,50.8C604.82,592.65,643,650,648.56,700.72c4.75-15.23,8.91-28.71,9.27-30.45,0,0,9-27.58,13.55-36.58,0,0,10.26-19.92,23.54-35.81,0,0,22.11-27.14,47.27-49.12,0,0,14-18.12,33.86-17.09l2.6.1s32,4.17,53-7.56c0,0,6.74,1.2,5.2,31.57C836.82,555.78,860.13,527.79,833,487.46Zm-89-14.11c-.12.6-1.46,6-1.48,6.58a25.41,25.41,0,0,1,1.3,2.37c1.47.73,3.16.41,4.56,1.41a.77.77,0,0,1-.08,1.27,4.15,4.15,0,0,1-2.81.5c.13.23.28.47.44.7,1.05,1.43-.75,2.11-1.9.94-.18-.19-.36-1.44-.54-1.44H743c-3.27,0-6.12-4.42-6.38-8.07-.06-.66,1-4.87,1.43-5.21-2.62-.64-6.08.66-8.38.13.31,5.64,2.46,13.6,6.74,17,2.18,1.7,5,3.24,7.72,2.46,3.53-1,5.13-4.35,7.4-7.17.55-.71,2-.51,1.78.71a12.51,12.51,0,0,1-2.87,6.3c-10.06,16.3-27.19,1.91-41.67,6.08-.71.23-1.42.49-2.12.75-1.36.51-2.38-1.69-1-2.32A20.58,20.58,0,0,1,710,495a35.45,35.45,0,0,1,18.35-.38c1.08.29.76,1.8-.11,2.11,6.15,1.23,12.11,1.91,17.55-1.76a10.73,10.73,0,0,1-9.81-1.6c-5.31-3.86-10-13.44-8.75-20.62-5.07-1-10,.51-15.25.58,0,0-13.72.9-21,2.34,0,0-19.44,5-17.39,3.78,14-8.54,31.23-12.32,47-11.9,11.12.3,7,.68,25.82,1.56,0,0,11,.31,14.3,3.16C763.61,474.8,750.27,473,744,473.35Z"/>
      <path class="cls-2" d="M312.05,427.5s-5.46,85.17,85.5,154.06c23.08,17.48,85,48.81,118.87,71.05,29.31,19.28,71.53,67.1,75.85,108.28,1.51,14.66,5.84,79,1,59.07-6.07-25.07-23.26-69.22-87.38-104.43-36.05-19.8-110.9-59.63-140.82-85.87-28.56-25-85.12-69.5-72-144C296.13,468,309.21,427.56,312.05,427.5Z"/>
      <path class="cls-1" d="M265.93,568.56s5.91,74,94.75,118.25c22.56,11.25,81.14,28.06,113.75,41.66,28.26,11.77,71.5,45.93,80.48,80.55,3.21,12.32,15.1,66.81,8.33,50.49C554.73,839,534,803.93,473.05,784.13,438.77,773,367.77,751,338.09,733.34c-28.31-16.84-83.78-45.79-81.61-111.86C257,605.88,263.43,569.06,265.93,568.56Z"/>
      <path class="cls-1" d="M375.29,284s-20.87,93.89,69.17,190.46c22.87,24.52,86.9,72.91,121,105.07C595,607.35,634,669.88,631.72,716.77c-.8,16.69-7.1,89.45-9.07,66.13-2.49-29.28-14.11-82.28-79.9-135.48-37-29.9-114-90.57-143-126.33-27.69-34.15-83.41-96-55.85-176.39C350.43,325.72,372.09,283.41,375.29,284Z"/>
    </g>
  </g>
</svg>
