<svg id="Capa_1" data-name="Capa 1" xmlns="http://www.w3.org/2000/svg" viewBox="0 0 1080 1080">
  <defs>
    <style>
      .cls-1 {
        fill: #be0811;
      }

      .cls-2 {
        fill: #666;
      }
    </style>
  </defs>
  <title>Versiones Imagotipo Sentry</title>
  <g>
    <path class="cls-1" d="M1000.45,436.47S967.91,391,901.93,383.41c0,0-4.12-.35-14.21-5.14,0,0-25.65-46.23-135.2-20,0,0-104.59,25.69-157.55,57.58,0,0-54.89,33.22-96.21,66.11,33.91,28.1,68.9,57.11,94.18,81,43.7,41.22,104.6,132.7,113.45,213.53,7.58-24.28,14.2-45.78,14.78-48.55,0,0,14.35-44,21.6-58.32,0,0,16.36-31.75,37.54-57.09,0,0,35.25-43.28,75.36-78.32,0,0,22.35-28.89,54-27.25l4.14.15s51,6.66,84.46-12.05c0,0,10.74,1.92,8.29,50.33C1006.55,545.39,1043.71,500.77,1000.45,436.47ZM858.49,414c-.18.95-2.33,9.52-2.35,10.48a40.11,40.11,0,0,1,2.06,3.79c2.36,1.15,5,.65,7.27,2.25a1.23,1.23,0,0,1-.13,2,6.63,6.63,0,0,1-4.47.79c.21.36.44.76.7,1.12,1.67,2.28-1.19,3.36-3,1.49-.28-.3-.57-2.29-.86-2.29h-.74c-5.22,0-9.74-7-10.16-12.86-.11-1,1.57-7.77,2.27-8.31-4.18-1-9.7,1.05-13.35.21.49,9,3.92,21.68,10.74,27.07,3.47,2.71,8,5.16,12.31,3.92,5.62-1.58,8.18-6.93,11.79-11.43.88-1.13,3.16-.82,2.84,1.13a19.82,19.82,0,0,1-4.57,10.05c-16,26-43.36,3-66.44,9.69-1.13.36-2.26.78-3.38,1.2-2.17.81-3.79-2.69-1.56-3.7a32.7,32.7,0,0,1,6.9-2.16c9.64-2.59,19.37-3.14,29.25-.6,1.73.46,1.22,2.88-.16,3.36,9.8,2,19.29,3,28-2.8a17.09,17.09,0,0,1-15.63-2.55c-8.47-6.15-15.92-21.43-14-32.88-8.08-1.55-15.92.81-24.31.93,0,0-21.88,1.44-33.48,3.72,0,0-31,8-27.74,6,22.38-13.62,49.79-19.64,74.92-19,17.72.48,11.16,1.08,41.17,2.49,0,0,17.59.5,22.79,5C889.83,416.29,868.55,413.36,858.49,414Z"/>
    <path class="cls-1" d="M169.86,340.88s-8.7,135.79,136.32,245.62C343,614.37,441.74,664.33,495.7,699.79c46.73,30.74,114,107,120.94,172.63,2.41,23.38,9.31,126,1.6,94.18-9.68-40-37.09-110.35-139.32-166.5C421.43,768.54,302.1,705,254.4,663.19c-45.54-39.92-135.72-110.8-114.84-229.66C144.47,405.46,165.34,341,169.86,340.88Z"/>
    <path class="cls-2" d="M96.32,565.77s9.42,117.91,151.07,188.55c36,17.93,129.37,44.73,181.36,66.42,45.06,18.77,114,73.23,128.32,128.43,5.12,19.64,24.08,106.52,13.28,80.49-13.57-32.7-46.61-88.61-143.79-120.18-54.66-17.73-167.86-52.85-215.18-81-45.15-26.85-133.58-73-130.13-178.35C82.06,625.28,92.33,566.58,96.32,565.77Z"/>
    <path class="cls-2" d="M270.68,112S237.4,261.7,381,415.68c36.46,39.1,138.56,116.24,192.88,167.53,47.08,44.41,109.35,144.11,105.68,218.87-1.28,26.62-11.31,142.62-14.45,105.44-4-46.69-22.51-131.19-127.4-216-59-47.68-181.75-144.41-228-201.43-44.16-54.44-133-153.08-89.05-281.23C231.05,178.59,265.59,111.13,270.68,112Z"/>
  </g>
</svg>
