<?xml version="1.0" encoding="utf-8"?>
<!-- Generator: Adobe Illustrator 23.0.0, SVG Export Plug-In . SVG Version: 6.00 Build 0)  -->
<svg version="1.1" id="Capa_1" xmlns="http://www.w3.org/2000/svg" xmlns:xlink="http://www.w3.org/1999/xlink" x="0px" y="0px"
	 viewBox="0 0 200 200" style="enable-background:new 0 0 200 200;" xml:space="preserve">
<style type="text/css">
	.st0{fill:#666666;}
	.st1{fill:#BE0811;}
	.st2{fill:url(#SVGID_1_);}
</style>
<g>
	<g>
		<path class="st0" d="M24,139.1c0.5,1.1,0.3,1.7-0.8,2.2l-0.2,0.1c-1.2,0.6-1.7,0.4-2.3-0.7l-0.1-0.2c-0.6-1.2-0.4-1.7,0.8-2.3
			l0.2-0.1c1.1-0.5,1.7-0.3,2.2,0.8L24,139.1z"/>
		<path class="st0" d="M26.4,155.4c-0.3,0.1-0.7,0-0.9-0.3l-1.1-1.5c-0.2-0.3-0.2-0.6,0-0.9l8.1-10.4l1.1,1.6l-6.6,8.3
			c-0.3,0.4-0.7,0.8-1,1.1l0.3,0.4c0.4-0.2,0.9-0.4,1.4-0.5l10-3.4l1.1,1.6L26.4,155.4z"/>
		<path class="st0" d="M30,160.8l7-6l1.2,1.4l-7,6L30,160.8z M40.9,153.2c0.2,0.3,0.2,0.5-0.1,0.7l-0.8,0.7c-0.3,0.2-0.5,0.2-0.8,0
			l-0.6-0.7c-0.2-0.3-0.2-0.5,0.1-0.8l0.8-0.7c0.2-0.2,0.5-0.2,0.7,0.1L40.9,153.2z"/>
		<path class="st0" d="M37.6,168.1c-0.3,0.1-0.6,0.1-0.8-0.1l-1.2-1.2c-0.2-0.2-0.3-0.5-0.1-0.8l3.8-8.6l1.4,1.4l-2.9,6.1
			c-0.2,0.5-0.5,1-0.7,1.5l0.2,0.2c0.5-0.3,1-0.5,1.5-0.8l6-3.1l1.4,1.4L37.6,168.1z"/>
		<path class="st0" d="M48.6,175.7l-0.6,1.1c-1-0.2-2.4-1.1-3.3-1.8c-2.6-1.9-2.8-3.7-0.6-6.6c2.2-2.9,4-3.1,6.4-1.3
			c2.3,1.7,2.6,3.3,1.4,4.9c-1,1.3-2.2,1.7-3.4,0.8l-3.3-2.5c-1.1,1.7-0.7,2.5,0.7,3.6C46.6,174.5,47.7,175.2,48.6,175.7z
			 M45.9,169.1l3,2.2c0.6,0.5,1.1,0,1.5-0.4c0.7-0.9,0.5-1.6-0.8-2.5C48.2,167.3,47.3,167.4,45.9,169.1z"/>
		<path class="st1" d="M64.9,174.9l-4.6,9.3l-3.2-1.6l4.6-9.3l-3.4-1.7l1.2-2.5l9.9,5l-1.2,2.5L64.9,174.9z"/>
		<path class="st1" d="M78.3,185.2c-1.3,3.9-3.1,4.9-6.8,3.7c-4-1.3-5-3.2-3.7-7.1l2.4-7.4l3.4,1.1l-2.4,7.4c-0.7,2.1-0.4,2.9,1,3.3
			c1.4,0.5,2.1,0,2.8-2.1l2.4-7.4l3.4,1.1L78.3,185.2z"/>
		<path class="st0" d="M93,192.7c-1.7,0-3.7-0.3-5.6-0.5c-1.6-0.2-2.5-1.2-2.4-2.6l1-8.4c0.2-1.4,1.3-2.2,2.9-2
			c1.9,0.2,3.9,0.4,5.6,0.8l-0.3,1.5l-5.2-0.6c-0.8-0.1-1.1,0.2-1.2,1.1l-0.3,2.6l5.5,0.6l-0.2,1.5l-5.5-0.6l-0.4,3.3
			c-0.1,0.9,0.1,1.2,0.9,1.3l5.2,0.6L93,192.7z"/>
		<path class="st0" d="M99.8,188.8l-2.4,4.1l-2,0l3-4.8l-2.9-4.4l2,0l2.3,3.7l0.4,0l2.2-3.8l2,0l-2.7,4.5l3.1,4.7l-2,0l-2.6-4.1
			L99.8,188.8z"/>
		<path class="st0" d="M115.5,186.9c0.5,3.6-0.5,4.9-2.8,5.2c-1.2,0.2-2.4,0-3.5-0.5c0.1,0.6,0.2,1.2,0.3,1.9l0.4,2.6l-1.8,0.3
			l-1.8-12.9l1.5-0.2l0.3,1.4c0.8-1.1,2.3-2,3.6-2.2C113.9,182.1,115.1,183.7,115.5,186.9z M113.6,187.1c-0.3-2.5-1-3.2-2.3-3
			c-1,0.1-1.8,0.7-2.8,1.8l0.6,4.7c1.1,0.1,1.9,0.2,2.9,0.1C113.5,190.4,114,189.7,113.6,187.1z"/>
		<path class="st0" d="M126.4,187.2l0.5,1.1c-0.8,0.6-2.3,1.2-3.4,1.5c-3.1,0.9-4.7-0.1-5.6-3.5c-1-3.5,0-5,2.8-5.8
			c2.8-0.8,4.2,0,4.7,1.9c0.4,1.6,0,2.8-1.5,3.2l-4,1.1c0.7,1.9,1.6,2.1,3.3,1.6C124.3,188,125.5,187.5,126.4,187.2z M119.6,185.3
			l3.6-1c0.8-0.2,0.7-0.9,0.6-1.4c-0.3-1.1-0.9-1.4-2.5-0.9C119.5,182.4,119.1,183.1,119.6,185.3z"/>
		<path class="st0" d="M132.7,178.1l-0.5,0.2c-0.9,0.4-1.6,1.1-2.7,2.2l2.5,6.2l-1.7,0.7l-3.4-8.6l1.3-0.5l0.7,1.3
			c0.8-1.5,1.9-2.5,3-3l0.4-0.2L132.7,178.1z"/>
		<path class="st0" d="M133.3,171.7c0.3-0.2,0.6,0,0.7,0.2l0.5,1c0.2,0.3,0.1,0.6-0.2,0.7l-0.8,0.4c-0.3,0.2-0.6,0.1-0.7-0.3l-0.5-1
			c-0.1-0.3-0.1-0.6,0.2-0.7L133.3,171.7z M137.9,184.2l-4.1-8.3l1.6-0.8l4.1,8.3L137.9,184.2z"/>
		<path class="st0" d="M148.5,176.5l0.8,1c-0.6,0.8-1.9,1.8-2.8,2.4c-2.8,1.7-4.5,1.2-6.3-1.9c-1.9-3.1-1.4-4.8,1.1-6.4
			c2.5-1.5,4-1.2,5.1,0.6c0.9,1.4,0.8,2.6-0.6,3.4l-3.6,2.2c1.2,1.6,2.1,1.6,3.6,0.6C146.6,177.9,147.7,177.1,148.5,176.5z
			 M141.4,176.5l3.2-1.9c0.7-0.4,0.4-1,0.1-1.5c-0.6-0.9-1.3-1-2.6-0.2C140.6,173.8,140.3,174.6,141.4,176.5z"/>
		<path class="st0" d="M154.5,165l4.3,5.4l-1.4,1.2l-4-5c-0.7-0.9-1.2-1-1.9-0.5c-0.8,0.7-1.2,1.7-1.8,3.2l4.1,5.1l-1.4,1.2
			l-5.8-7.2l1.2-1l1,1c0.4-1.7,1.1-3,2.2-3.9C152.2,163.6,153.5,163.7,154.5,165z"/>
		<path class="st0" d="M160.1,156.5l0.7,1c-0.6,0.6-1.4,1.3-1.8,1.7c-1.5,1.5-1.4,2.5,0.4,4.3c1.8,1.8,2.9,1.8,4.4,0.3
			c0.4-0.4,1.2-1.3,1.8-2.1l1,0.7c-0.4,0.9-1.1,1.9-1.9,2.7c-2.3,2.3-4,2.3-6.6-0.2c-2.6-2.5-2.7-4.3-0.4-6.6
			C158.2,157.8,159.2,156.9,160.1,156.5z"/>
		<path class="st0" d="M159.1,151.1c0.2-0.3,0.5-0.3,0.7-0.1l0.8,0.7c0.3,0.2,0.3,0.5,0.1,0.8l-0.6,0.7c-0.2,0.3-0.5,0.3-0.8,0.1
			l-0.8-0.7c-0.2-0.2-0.3-0.5-0.1-0.7L159.1,151.1z M168.5,160.5l-7.2-5.9l1.2-1.4l7.2,5.9L168.5,160.5z"/>
		<path class="st0" d="M170.9,146.2l5.3,3.6l-0.8,1.2l-1.3-0.6c0.2,1,0.2,2.6-0.7,4c-0.9,1.4-2.4,1.8-3.8,0.9l-0.8-0.5
			c-1.2-0.8-1.4-2.1-0.5-3.5l2.1-3.1l-0.6-0.4c-1-0.6-1.5-0.5-2.3,0.7c-0.5,0.8-1.3,2.1-2,3.4l-1.2-0.6c0.5-1.2,1.4-2.9,2.2-4
			C167.7,145.5,169,144.9,170.9,146.2z M170.5,153.6c0.8,0.5,1.3,0.4,1.8-0.4c0.5-0.7,0.9-1.9,0.7-3.3l-1.4-0.9l-1.9,2.8
			c-0.4,0.7-0.2,1.2,0.4,1.6L170.5,153.6z"/>
		<path class="st0" d="M174.9,137.7c0.5-1.1,1.1-1.3,2.2-0.8l0.2,0.1c1.2,0.5,1.4,1.1,0.9,2.2l-0.1,0.2c-0.5,1.2-1.1,1.4-2.3,0.8
			l-0.2-0.1c-1.1-0.5-1.3-1.1-0.8-2.2L174.9,137.7z"/>
	</g>
	<g>
		<path class="st0" d="M10.6,68.8l1.9,0.8c-0.5,1.5-1.2,3.5-1.8,5.3c-0.8,2.5-1,3.5,1.5,4.3c1.9,0.6,2.6,0.1,3.5-1.4l2.2-3.4
			c1.7-2.6,3.7-3,6.4-2.1c4.3,1.3,4.5,3.4,3.1,7.9c-0.4,1.2-1.1,3.2-2.3,5.7l-1.9-0.8c1.2-3.3,1.5-4.3,1.9-5.7
			c0.8-2.7,0.7-3.7-1.6-4.4c-2-0.6-2.7-0.1-3.5,1.3l-2.2,3.4c-1.6,2.5-3.6,2.9-6.4,2c-4.3-1.3-4.3-3.4-3-7.6
			C8.9,72.5,9.6,70.6,10.6,68.8z"/>
		<path class="st0" d="M13.7,61c0.2-0.5,0.6-0.6,1.1-0.4l1.4,0.7c0.5,0.2,0.6,0.6,0.4,1.1L16,63.5c-0.2,0.5-0.6,0.6-1.1,0.4
			l-1.4-0.7c-0.4-0.2-0.6-0.6-0.4-1.1L13.7,61z M30.5,71.2l-12.4-5.9l1.2-2.4l12.4,5.9L30.5,71.2z"/>
		<path class="st0" d="M27.7,49.2l1.5,1.3c-1,1.4-2,2.8-3,4.3c-1.3,2-1.7,2.7-0.5,3.5c1.1,0.7,1.6,0.2,2.6-0.6l2.9-2.7
			c1.7-1.5,3-1.9,5-0.6c2.8,1.8,2.3,3.7,0.1,7.2c-0.5,0.8-1.7,2.5-3.3,4.3l-1.6-1.3c0.8-1,1.7-2.4,2.7-3.9c1.6-2.5,1.9-3.4,0.7-4.2
			c-1.1-0.7-1.6-0.1-2.6,0.8L29.3,60c-1.7,1.6-3.1,1.7-5,0.5c-2.6-1.7-2.3-3.5-0.2-6.6C25.1,52.3,26.5,50.5,27.7,49.2z"/>
		<path class="st0" d="M40.7,48.9c1,0.9,1.6,0.8,2.5-0.2l1.3-1.5l1.8,1.2c-0.4,0.8-1.4,2.1-1.9,2.6c-1.6,1.7-3.4,1.7-5.3,0.1
			l-5.9-5.4l-1.7,1.9l-1.5-1.3l1.6-1.9l-3-2.7l1.8-2l3,2.7l2.9-3.1l1.6,1.4L35,43.7L40.7,48.9z"/>
		<path class="st0" d="M55.3,38.2l1.3,1.3c-0.7,1.3-2.5,3-3.7,4c-3.7,3-6.4,2.6-9.7-1.5c-3.4-4.3-3-6.8,0.5-9.6
			c3.3-2.7,5.7-2.5,7.6-0.1c1.5,1.9,1.6,3.7-0.2,5.2l-4.8,3.8c2.1,2.2,3.4,1.9,5.5,0.3C52.8,40.5,54.2,39.2,55.3,38.2z M44.9,39.5
			l4.3-3.4c0.9-0.7,0.4-1.6-0.1-2.3c-1.1-1.3-2.1-1.3-3.9,0.2C43.1,35.7,43,36.9,44.9,39.5z"/>
		<path class="st0" d="M73.3,20.2l4.2,9.4l-2.4,1.1L71.2,22c-0.7-1.5-1.4-1.9-2.8-1.3c-1.2,0.5-1.8,1.4-3,3.6l4,8.9L67,34.3
			l-3.9-8.7c-0.7-1.5-1.5-1.8-2.8-1.3c-1.2,0.5-1.8,1.4-3.1,3.6l4,8.9L58.9,38l-5.6-12.5l2.1-0.9l1,1.8c1-2.2,2.3-3.7,4-4.5
			c1.7-0.8,3.1-0.5,4.2,0.7c1-2.2,2.3-3.6,3.9-4.4C70.6,17.2,72.3,17.9,73.3,20.2z"/>
		<path class="st0" d="M90.2,17.8l1.6,9.4l-2.1,0.4l-0.7-2.1c-0.8,1.2-2.5,2.9-5,3.3c-2.5,0.4-4.4-0.6-4.8-3.1L79,24.3
			c-0.4-2.2,0.8-3.6,3.2-4l5.4-0.9l-0.2-1.1c-0.3-1.7-1-2.1-3.1-1.7c-1.3,0.2-3.6,0.8-5.7,1.3L78.2,16c1.9-0.7,4.6-1.4,6.5-1.8
			C87.8,13.7,89.6,14.4,90.2,17.8z M81.9,25c0.2,1.3,0.9,1.8,2.3,1.5c1.2-0.2,2.9-1.1,4.2-2.7L88,21.4l-4.9,0.9
			c-1.2,0.3-1.5,1-1.3,2L81.9,25z"/>
		<path class="st0" d="M105.8,13.6l-0.3,2c-1.7-0.1-3.5-0.2-5.2-0.2c-2.4,0-3.2,0-3.2,1.5c0,1.3,0.6,1.4,1.9,1.8l3.9,1
			c2.2,0.6,3.2,1.5,3.1,3.9c-0.1,3.4-1.9,3.9-6,3.9c-0.9,0-3.1-0.1-5.5-0.5l0.2-2c1.3,0.1,2.9,0.2,4.7,0.2c3,0,3.9-0.2,3.9-1.6
			c0-1.3-0.8-1.4-2.1-1.8l-3.8-1c-2.3-0.6-3.1-1.7-3.1-4c0.1-3.1,1.7-3.8,5.5-3.7C101.7,13.1,104.1,13.3,105.8,13.6z"/>
		<path class="st1" d="M121.9,16.5c-0.3,1.1,0,1.8,1.1,2.1l4.8,1.5c1.8,0.5,2.9,1.3,3.5,2.4c0.6,1.1,0.6,2.5,0.1,4.2L131,28
			c-0.5,1.7-1.3,2.9-2.4,3.4c-1.1,0.6-2.5,0.6-4.2,0c-0.5-0.2-1.1-0.3-1.7-0.5c-0.6-0.2-1.2-0.4-1.8-0.6c-0.6-0.2-1.2-0.4-1.9-0.6
			c-0.6-0.2-1.2-0.4-1.8-0.5c-1.3-0.4-2.6-0.9-3.8-1.5l1.1-3.4c1.3,0.4,2.6,0.8,3.8,1.2c1.1,0.3,2.2,0.7,3.3,1s2.1,0.6,2.9,0.9
			c0.4,0.1,0.8,0.1,1.1,0c0.3-0.2,0.5-0.4,0.6-0.8l0.7-2.3l-6.2-1.9c-1.9-0.6-3.1-1.4-3.7-2.5s-0.6-2.6,0-4.5l0.2-0.8
			c0.6-1.9,1.4-3.1,2.5-3.7c1.1-0.6,2.6-0.6,4.5,0l9.4,2.9l-1.2,3.8l-8.4-2.6c-1.1-0.3-1.8,0-2.1,1.1L121.9,16.5z"/>
		<path class="st1" d="M135.6,24.2c0.7-1.2,1.6-2,2.7-2.3c1.1-0.3,2.2-0.1,3.5,0.6l4.9,2.8c1.2,0.7,2,1.6,2.3,2.7
			c0.3,1.1,0.1,2.2-0.6,3.5l-2.6,4.5l-8.4-4.8l-0.5,0.9c-0.1,0.2-0.2,0.5-0.1,0.7c0.1,0.2,0.2,0.4,0.5,0.6c0.7,0.4,1.5,0.8,2.3,1.3
			c0.8,0.5,1.6,0.9,2.3,1.3c0.9,0.4,1.8,0.8,2.6,1.2l-1.8,3.1c-1-0.4-2-0.9-3-1.5c-0.9-0.3-1.9-0.8-2.9-1.4s-2-1.1-2.9-1.7
			c-1.1-0.6-1.8-1.5-2.1-2.5c-0.3-1-0.1-2.1,0.5-3.2L135.6,24.2z M141.3,26.4c-0.7-0.4-1.2-0.2-1.5,0.4l-0.8,1.3l4.1,2.4l0.8-1.3
			c0.4-0.6,0.2-1.2-0.4-1.5L141.3,26.4z"/>
		<path class="st1" d="M157.5,33.6l-0.7,1.2c0.6,0.1,1.2,0.2,1.7,0.4c0.5,0.2,1,0.4,1.6,0.7c0.6,0.3,1.1,0.6,1.6,1.1l0.9,0.9
			c0.9,0.9,1.4,1.8,1.5,2.9c0.1,1.1-0.4,2.1-1.2,3l-7.4,8.1l-3.6-3.3l6.8-7.5c0.2-0.2,0.3-0.4,0.3-0.7c0-0.3-0.1-0.5-0.3-0.7
			l-0.7-0.7c-0.3-0.2-0.6-0.5-0.9-0.7c-0.3-0.2-0.6-0.4-0.9-0.6c-0.3-0.2-0.7-0.4-1-0.6l-7.1,7.8l-3.6-3.3l10-11L157.5,33.6z"/>
		<path class="st1" d="M171.8,48.9l2.1,2.8l-3,2.3l-2.1-2.8l-5.2,3.9c-0.2,0.2-0.4,0.4-0.4,0.6c0,0.3,0,0.5,0.2,0.7l2.2,2.9
			l-2.9,2.2c-0.4-0.4-0.8-0.8-1.1-1.3c-0.4-0.4-0.8-0.8-1.1-1.3c-0.4-0.5-0.8-1-1.2-1.5c-0.8-1-1.1-2.1-0.9-3.1
			c0.1-1.1,0.7-2,1.7-2.8l5.7-4.3l-1-1.3l3-2.3l1,1.3l3-1.6l2.6,3.5L171.8,48.9z"/>
		<path class="st1" d="M178.5,59.5l-1.5,1.1c0.5,0.2,1.1,0.5,1.6,0.8c0.4,0.3,0.9,0.6,1.4,1.1c0.5,0.4,0.9,1,1.3,1.6l0.6,1.1l-3.9,2
			l-1.1-2.1c-0.2-0.4-0.5-0.8-0.8-1.2c-0.3-0.3-0.6-0.6-0.8-0.9c-0.3-0.3-0.6-0.5-0.9-0.8l-8.8,4.7l-2.3-4.3l13.2-7L178.5,59.5z"/>
		<path class="st1" d="M186.2,78.4l1.6,5l-16.4-0.7c-1.6-0.1-2.9-0.4-3.8-1c-1-0.6-1.7-1.6-2.1-3c-0.1-0.3-0.2-0.7-0.4-1.1
			c-0.1-0.4-0.2-0.8-0.3-1.2c-0.1-0.4-0.2-0.9-0.2-1.3L168,74l0.8,2.4c0.2,0.7,0.5,1.1,1,1.1c0.4,0.1,1-0.1,1.5-0.6l11.4-9.7l1.6,5
			l-8.1,6.3L186.2,78.4z"/>
	</g>
	<g>
		
			<linearGradient id="SVGID_1_" gradientUnits="userSpaceOnUse" x1="123.3553" y1="51.6368" x2="123.3553" y2="51.6368" gradientTransform="matrix(0.9939 -0.1107 0.1107 0.9939 -25.579 62.9253)">
			<stop  offset="9.852219e-03" style="stop-color:#6C191C"/>
			<stop  offset="0.6355" style="stop-color:#981B1E"/>
		</linearGradient>
		<path class="st2" d="M102.7,100.6"/>
		<path class="st1" d="M152.1,92.9c0,0-3.7-5.2-11.2-6c0,0-0.5,0-1.6-0.6c0,0-2.9-5.2-15.3-2.3c0,0-11.9,2.9-17.9,6.5
			c0,0-6.2,3.8-10.9,7.5c3.8,3.2,7.8,6.5,10.7,9.2c5,4.7,11.9,15.1,12.9,24.2c0.9-2.8,1.6-5.2,1.7-5.5c0,0,1.6-5,2.4-6.6
			c0,0,1.9-3.6,4.3-6.5c0,0,4-4.9,8.5-8.9c0,0,2.5-3.3,6.1-3.1l0.5,0c0,0,5.8,0.8,9.6-1.4c0,0,1.2,0.2,0.9,5.7
			C152.8,105.3,157,100.2,152.1,92.9z M136,90.4c0,0.1-0.3,1.1-0.3,1.2c0.1,0.1,0.2,0.3,0.2,0.4c0.3,0.1,0.6,0.1,0.8,0.3
			c0.1,0.1,0.1,0.2,0,0.2c-0.1,0.1-0.3,0.1-0.5,0.1c0,0,0.1,0.1,0.1,0.1c0.2,0.3-0.1,0.4-0.3,0.2c0,0-0.1-0.3-0.1-0.3h-0.1
			c-0.6,0-1.1-0.8-1.2-1.5c0-0.1,0.2-0.9,0.3-0.9c-0.5-0.1-1.1,0.1-1.5,0c0.1,1,0.4,2.5,1.2,3.1c0.4,0.3,0.9,0.6,1.4,0.4
			c0.6-0.2,0.9-0.8,1.3-1.3c0.1-0.1,0.4-0.1,0.3,0.1c-0.1,0.5-0.3,0.8-0.5,1.1c-1.8,2.9-4.9,0.3-7.5,1.1c-0.1,0-0.3,0.1-0.4,0.1
			c-0.2,0.1-0.4-0.3-0.2-0.4c0.3-0.1,0.5-0.2,0.8-0.2c1.1-0.3,2.2-0.4,3.3-0.1c0.2,0.1,0.1,0.3,0,0.4c1.1,0.2,2.2,0.3,3.2-0.3
			c-0.6,0.2-1.2,0.1-1.8-0.3c-1-0.7-1.8-2.4-1.6-3.7c-0.9-0.2-1.8,0.1-2.8,0.1c0,0-2.5,0.2-3.8,0.4c0,0-3.5,0.9-3.1,0.7
			c2.5-1.5,5.6-2.2,8.5-2.2c2,0.1,1.3,0.1,4.7,0.3c0,0,2,0.1,2.6,0.6C139.6,90.6,137.1,90.3,136,90.4z"/>
		<path class="st1" d="M57.9,82.1c0,0-1,15.4,15.5,27.9c4.2,3.2,15.4,8.8,21.5,12.9c5.3,3.5,12.9,12.1,13.7,19.6
			c0.3,2.7,1.1,14.3,0.2,10.7c-1.1-4.5-4.2-12.5-15.8-18.9c-6.5-3.6-20.1-10.8-25.5-15.5c-5.2-4.5-15.4-12.6-13-26.1
			C55,89.4,57.4,82.1,57.9,82.1z"/>
		<path class="st0" d="M49.5,107.6c0,0,1.1,13.4,17.1,21.4c4.1,2,14.7,5.1,20.6,7.5c5.1,2.1,12.9,8.3,14.6,14.6
			c0.6,2.2,2.7,12.1,1.5,9.1c-1.5-3.7-5.3-10.1-16.3-13.6c-6.2-2-19-6-24.4-9.2c-5.1-3-15.2-8.3-14.8-20.2
			C47.9,114.4,49.1,107.7,49.5,107.6z"/>
		<g>
			<path class="st0" d="M69.3,56.1c0,0-3.8,17,12.5,34.5c4.1,4.4,15.7,13.2,21.9,19c5.3,5,12.4,16.3,12,24.8c-0.1,3-1.3,16.2-1.6,12
				c-0.4-5.3-2.6-14.9-14.5-24.5C92.9,116.5,79,105.5,73.7,99c-5-6.2-15.1-17.4-10.1-31.9C64.8,63.7,68.7,56,69.3,56.1z"/>
		</g>
	</g>
</g>
</svg>
